# xmcd
#
# Track frame offsets:
#	182
#	10370
#	26132
#	35807
#	49070
#	59270
#	71232
#	83532
#	94982
#	106645
#	117995
#	130457
#	142357
#	153170
#	167057
#	178745
#	191570
#	201282
#
# Disc length: 2987 seconds
#
# Revision: 0
# Processed by: cddbd v1.4PL0 Copyright (c) Steve Scherf et al.
# Submitted via: EasyCDDAExtractor 4.5.2.1
#
DISCID=080ba912
DTITLE=magic sam - Jazz and Blues Collection - CD 64
DYEAR=1900
DGENRE=Blues
TTITLE0=Look Watcha Done
TTITLE1=Easy Baby
TTITLE2=Every Night About This Time
TTITLE3=All Your Love 
TTITLE4=All My Whole Life
TTITLE5=Blue Light Boogie
TTITLE6=21 Days In Jail
TTITLE7=She Belongs To Me
TTITLE8=You Don't Have To Work
TTITLE9=Magic Rocker
TTITLE10=Roll Your Moneymaker
TTITLE11=My Love Is Your Love
TTITLE12=Out Of Bad Luck
TTITLE13=Cal Me If You Need Me
TTITLE14=Mr. Charlie
TTITLE15=All Night Long
TTITLE16=Love Me With A Feeling
TTITLE17=Square Dance Rock, Part 1 and 2
EXTD=
EXTT0=
EXTT1=
EXTT2=
EXTT3=
EXTT4=
EXTT5=
EXTT6=
EXTT7=
EXTT8=
EXTT9=
EXTT10=
EXTT11=
EXTT12=
EXTT13=
EXTT14=
EXTT15=
EXTT16=
EXTT17=
PLAYORDER=
